solid b'Exported from Blender-3.3.0\x00\x00\x00\x00\x00\x00\x00\x00\x00\x00\x00\x00\x00\x00\x00\x00\x00\x00\x00\x00\x00\x00\x00\x00\x00\x00\x00\x00\x00\x00\x00\x00\x00\x00\x00\x00\x00\x00\x00\x00\x00\x00\x00\x00\x00\x00\x00\x00\x00\x00\x00\x00\x00'
facet normal 0.0 0.0 4.0
  outer loop
    vertex 1.0 1.0 1.0
    vertex -1.0 1.0 1.0
    vertex -1.0 -1.0 1.0
  endloop
endfacet
facet normal 0.0 0.0 4.0
  outer loop
    vertex 1.0 1.0 1.0
    vertex -1.0 -1.0 1.0
    vertex 1.0 -1.0 1.0
  endloop
endfacet
facet normal 0.0 -4.0 0.0
  outer loop
    vertex 1.0 -1.0 -1.0
    vertex 1.0 -1.0 1.0
    vertex -1.0 -1.0 1.0
  endloop
endfacet
facet normal 0.0 -4.0 0.0
  outer loop
    vertex 1.0 -1.0 -1.0
    vertex -1.0 -1.0 1.0
    vertex -1.0 -1.0 -1.0
  endloop
endfacet
facet normal -4.0 0.0 0.0
  outer loop
    vertex -1.0 -1.0 -1.0
    vertex -1.0 -1.0 1.0
    vertex -1.0 1.0 1.0
  endloop
endfacet
facet normal -4.0 0.0 0.0
  outer loop
    vertex -1.0 -1.0 -1.0
    vertex -1.0 1.0 1.0
    vertex -1.0 1.0 -1.0
  endloop
endfacet
facet normal 0.0 0.0 -4.0
  outer loop
    vertex -1.0 1.0 -1.0
    vertex 1.0 1.0 -1.0
    vertex 1.0 -1.0 -1.0
  endloop
endfacet
facet normal 0.0 0.0 -4.0
  outer loop
    vertex -1.0 1.0 -1.0
    vertex 1.0 -1.0 -1.0
    vertex -1.0 -1.0 -1.0
  endloop
endfacet
facet normal 4.0 0.0 -0.0
  outer loop
    vertex 1.0 1.0 -1.0
    vertex 1.0 1.0 1.0
    vertex 1.0 -1.0 1.0
  endloop
endfacet
facet normal 4.0 0.0 0.0
  outer loop
    vertex 1.0 1.0 -1.0
    vertex 1.0 -1.0 1.0
    vertex 1.0 -1.0 -1.0
  endloop
endfacet
facet normal 0.0 4.0 0.0
  outer loop
    vertex -1.0 1.0 -1.0
    vertex -1.0 1.0 1.0
    vertex 1.0 1.0 1.0
  endloop
endfacet
facet normal 0.0 4.0 0.0
  outer loop
    vertex -1.0 1.0 -1.0
    vertex 1.0 1.0 1.0
    vertex 1.0 1.0 -1.0
  endloop
endfacet
endsolid b'Exported from Blender-3.3.0\x00\x00\x00\x00\x00\x00\x00\x00\x00\x00\x00\x00\x00\x00\x00\x00\x00\x00\x00\x00\x00\x00\x00\x00\x00\x00\x00\x00\x00\x00\x00\x00\x00\x00\x00\x00\x00\x00\x00\x00\x00\x00\x00\x00\x00\x00\x00\x00\x00\x00\x00\x00\x00'
